<?xml version="1.0" standalone="no"?>
<!DOCTYPE svg PUBLIC "-//W3C//DTD SVG 20010904//EN"
 "http://www.w3.org/TR/2001/REC-SVG-20010904/DTD/svg10.dtd">
<svg version="1.0" xmlns="http://www.w3.org/2000/svg"
 width="95.000000pt" height="95.000000pt" viewBox="0 0 95.000000 95.000000"
 preserveAspectRatio="xMidYMid meet">
<metadata>
Created by potrace 1.16, written by Peter Selinger 2001-2019
</metadata>
<g transform="translate(0.000000,95.000000) scale(0.100000,-0.100000)"
fill="#000000" stroke="none">
<path d="M350 733 c-33 -22 -47 -41 -65 -82 -34 -77 -6 -149 72 -182 51 -22
80 -50 89 -86 6 -22 7 -21 30 13 36 52 31 70 -36 134 -33 32 -60 64 -60 71 0
21 29 59 44 59 24 0 49 -38 42 -65 -8 -31 4 -32 32 -2 34 36 29 82 -12 123
-27 27 -42 34 -73 34 -21 0 -50 -8 -63 -17z"/>
<path d="M572 584 c-12 -8 -22 -25 -22 -37 0 -16 3 -18 12 -9 7 7 22 12 35 12
18 0 23 -6 23 -25 0 -27 -6 -34 -72 -75 -43 -27 -98 -103 -84 -117 3 -3 19 5
35 17 17 11 46 24 66 27 72 12 147 108 130 165 -17 56 -75 76 -123 42z"/>
<path d="M246 447 c-28 -28 -34 -68 -12 -86 11 -9 12 -6 8 14 -7 36 15 58 52
51 41 -9 64 -32 72 -75 8 -47 42 -85 61 -70 31 26 -1 145 -47 169 -10 6 -39
13 -64 16 -39 6 -48 3 -70 -19z"/>
<path d="M520 350 c-43 -27 -90 -70 -90 -84 0 -5 8 -18 17 -28 16 -18 18 -16
63 32 l46 50 81 0 c62 0 86 4 102 18 22 17 21 17 -31 18 -29 1 -75 5 -103 8
-41 6 -56 3 -85 -14z"/>
</g>
</svg>
