<?xml version="1.0" standalone="no"?>
<!DOCTYPE svg PUBLIC "-//W3C//DTD SVG 20010904//EN"
 "http://www.w3.org/TR/2001/REC-SVG-20010904/DTD/svg10.dtd">
<svg version="1.0" xmlns="http://www.w3.org/2000/svg"
 width="76.000000pt" height="84.000000pt" viewBox="0 0 76.000000 84.000000"
 preserveAspectRatio="xMidYMid meet">
<metadata>
Created by potrace 1.16, written by Peter Selinger 2001-2019
</metadata>
<g transform="translate(0.000000,84.000000) scale(0.100000,-0.100000)"
fill="#000000" stroke="none">
<path d="M340 707 c-55 -37 -88 -87 -125 -192 -20 -55 -49 -124 -65 -152 -36
-63 -38 -92 -7 -121 26 -24 77 -29 123 -12 25 10 31 7 66 -27 l38 -37 38 35
c36 34 38 35 72 23 19 -7 47 -13 61 -13 32 -1 79 34 79 59 0 10 -18 54 -40 97
-22 43 -45 101 -51 128 -22 97 -65 170 -129 215 l-28 20 -32 -23z m86 -277
c25 0 24 -19 -4 -72 -20 -37 -36 -54 -52 -56 -27 -4 -62 30 -84 82 -14 33 -14
37 4 46 10 5 25 10 33 10 8 0 20 7 27 15 11 13 15 12 37 -5 14 -11 32 -20 39
-20z"/>
</g>
</svg>
