<?xml version="1.0" standalone="no"?>
<!DOCTYPE svg PUBLIC "-//W3C//DTD SVG 20010904//EN"
 "http://www.w3.org/TR/2001/REC-SVG-20010904/DTD/svg10.dtd">
<svg version="1.0" xmlns="http://www.w3.org/2000/svg"
 width="88.000000pt" height="88.000000pt" viewBox="0 0 88.000000 88.000000"
 preserveAspectRatio="xMidYMid meet">
<metadata>
Created by potrace 1.16, written by Peter Selinger 2001-2019
</metadata>
<g transform="translate(0.000000,88.000000) scale(0.100000,-0.100000)"
fill="#000000" stroke="none">
<path d="M394 658 c-38 -36 -51 -60 -84 -152 -22 -59 -53 -133 -70 -162 -35
-63 -37 -82 -9 -118 23 -29 74 -35 125 -16 25 10 31 7 66 -27 l38 -37 38 36
c26 26 41 34 52 28 8 -4 35 -11 60 -15 38 -5 50 -3 73 15 15 12 27 30 27 39 0
10 -20 57 -43 104 -24 46 -49 112 -56 144 -18 94 -100 203 -152 203 -11 0 -40
-19 -65 -42z m119 -247 c15 -6 27 -14 27 -18 0 -5 -14 -32 -30 -60 -23 -40
-36 -53 -53 -53 -27 0 -60 35 -81 85 -14 32 -14 36 4 45 10 5 25 10 33 10 8 0
20 7 27 15 11 14 15 14 29 1 9 -8 28 -19 44 -25z"/>
</g>
</svg>
