<?xml version="1.0" standalone="no"?>
<!DOCTYPE svg PUBLIC "-//W3C//DTD SVG 20010904//EN"
 "http://www.w3.org/TR/2001/REC-SVG-20010904/DTD/svg10.dtd">
<svg version="1.0" xmlns="http://www.w3.org/2000/svg"
 width="88.000000pt" height="88.000000pt" viewBox="0 0 88.000000 88.000000"
 preserveAspectRatio="xMidYMid meet">
<metadata>
Created by potrace 1.16, written by Peter Selinger 2001-2019
</metadata>
<g transform="translate(0.000000,88.000000) scale(0.100000,-0.100000)"
fill="#000000" stroke="none">
<path d="M539 698 c-1 -7 0 -25 1 -40 2 -36 -49 -93 -76 -84 -24 8 -64 66 -64
93 0 25 -24 37 -40 18 -13 -16 -5 -54 23 -110 19 -39 19 -40 0 -23 -11 10 -33
23 -51 29 -17 6 -34 19 -37 30 -7 23 -40 25 -49 4 -6 -16 56 -80 101 -103 17
-10 23 -18 17 -30 -17 -40 -34 -119 -34 -157 0 -37 6 -47 63 -103 l63 -62 67
65 c76 73 78 82 52 194 -9 35 -14 65 -13 66 2 1 24 14 50 28 67 39 112 82 105
101 -9 23 -48 20 -54 -4 -3 -11 -6 -20 -7 -20 -1 0 -30 -11 -64 -24 l-61 -24
14 22 c15 23 45 111 45 134 0 6 -11 12 -25 12 -14 0 -25 -6 -26 -12z"/>
<path d="M700 485 c-7 -9 -33 -20 -57 -27 l-45 -11 7 -61 c8 -70 9 -72 36 -86
15 -9 21 -7 26 7 3 10 14 27 23 38 15 17 38 155 26 155 -2 0 -9 -7 -16 -15z"/>
<path d="M205 431 c7 -76 47 -146 76 -130 20 10 24 24 33 100 l5 47 -44 11
c-24 6 -47 15 -50 21 -16 26 -24 5 -20 -49z"/>
</g>
</svg>
