<?xml version="1.0" standalone="no"?>
<!DOCTYPE svg PUBLIC "-//W3C//DTD SVG 20010904//EN"
 "http://www.w3.org/TR/2001/REC-SVG-20010904/DTD/svg10.dtd">
<svg version="1.0" xmlns="http://www.w3.org/2000/svg"
 width="95.000000pt" height="95.000000pt" viewBox="0 0 95.000000 95.000000"
 preserveAspectRatio="xMidYMid meet">
<metadata>
Created by potrace 1.16, written by Peter Selinger 2001-2019
</metadata>
<g transform="translate(0.000000,95.000000) scale(0.100000,-0.100000)"
fill="#000000" stroke="none">
<path d="M217 650 c8 -29 101 -130 120 -130 12 0 14 -10 8 -57 -11 -98 -8
-138 13 -186 21 -48 39 -65 27 -26 -4 13 -3 19 3 15 5 -3 12 10 15 29 3 19 20
55 38 80 31 43 32 46 14 59 -16 12 -21 10 -41 -13 -21 -24 -23 -24 -24 -6 0
11 -3 37 -6 58 -6 33 -4 37 10 31 14 -5 15 -9 5 -15 -9 -5 17 -23 82 -53 89
-42 270 -108 277 -101 7 7 -62 126 -93 162 -25 28 -36 35 -45 27 -9 -9 -7 -21
4 -49 9 -21 15 -39 14 -41 -8 -7 -117 20 -112 28 3 5 47 40 97 77 51 38 103
80 116 95 l25 26 -50 -15 c-27 -8 -67 -20 -89 -27 -32 -10 -36 -13 -17 -16 12
-2 22 -7 22 -11 0 -4 -32 -35 -70 -70 l-71 -63 -37 16 c-34 14 -35 15 -12 17
14 1 34 1 45 1 16 -2 20 5 22 29 3 36 7 44 22 34 8 -4 8 -12 1 -26 -13 -24 2
-25 23 -1 32 35 9 65 -31 43 -15 -8 -23 -7 -32 4 -10 13 -8 15 14 15 59 0 12
17 -61 23 -67 5 -154 26 -215 52 -13 5 -15 2 -11 -15z"/>
</g>
</svg>
