<?xml version="1.0" standalone="no"?>
<!DOCTYPE svg PUBLIC "-//W3C//DTD SVG 20010904//EN"
 "http://www.w3.org/TR/2001/REC-SVG-20010904/DTD/svg10.dtd">
<svg version="1.0" xmlns="http://www.w3.org/2000/svg"
 width="88.000000pt" height="88.000000pt" viewBox="0 0 88.000000 88.000000"
 preserveAspectRatio="xMidYMid meet">
<metadata>
Created by potrace 1.16, written by Peter Selinger 2001-2019
</metadata>
<g transform="translate(0.000000,88.000000) scale(0.100000,-0.100000)"
fill="#000000" stroke="none">
<path d="M385 679 c-17 -4 -48 -26 -69 -48 -32 -33 -41 -50 -46 -93 -8 -59 -2
-95 11 -62 3 10 5 -18 4 -63 -2 -45 -6 -87 -10 -93 -4 -6 0 -22 9 -35 14 -21
19 -23 51 -14 20 6 45 7 55 4 21 -7 27 -30 10 -40 -5 -3 -10 -22 -10 -41 0
-19 4 -33 9 -30 5 4 11 2 13 -4 4 -14 78 -23 78 -9 0 5 4 8 10 4 13 -8 50 26
50 47 0 9 -10 24 -22 32 -16 11 -19 19 -12 26 15 15 64 19 93 8 17 -6 27 -5
33 4 11 18 10 92 -2 124 -8 19 -8 30 0 38 5 5 10 40 10 77 0 59 -3 71 -31 105
-17 22 -45 47 -62 56 -35 19 -121 22 -172 7z"/>
</g>
</svg>
