<?xml version="1.0" standalone="no"?>
<!DOCTYPE svg PUBLIC "-//W3C//DTD SVG 20010904//EN"
 "http://www.w3.org/TR/2001/REC-SVG-20010904/DTD/svg10.dtd">
<svg version="1.0" xmlns="http://www.w3.org/2000/svg"
 width="88.000000pt" height="88.000000pt" viewBox="0 0 88.000000 88.000000"
 preserveAspectRatio="xMidYMid meet">
<metadata>
Created by potrace 1.16, written by Peter Selinger 2001-2019
</metadata>
<g transform="translate(0.000000,88.000000) scale(0.100000,-0.100000)"
fill="#000000" stroke="none">
<path d="M385 650 c-37 -16 -95 -77 -95 -98 0 -12 67 -65 110 -87 19 -9 47
-29 63 -43 35 -33 39 -28 88 89 46 109 48 132 14 147 -38 18 -134 13 -180 -8z"/>
<path d="M566 480 l-37 -100 20 -46 c16 -35 25 -44 38 -40 10 3 35 8 57 11 21
2 41 7 44 9 8 8 -27 186 -43 216 -32 61 -39 56 -79 -50z"/>
<path d="M238 468 c-2 -55 3 -139 13 -223 17 -133 8 -123 100 -118 44 2 101 8
126 12 26 5 53 6 61 3 13 -4 14 4 9 59 -12 124 -33 160 -123 215 -47 28 -162
84 -175 84 -5 0 -10 -15 -11 -32z"/>
</g>
</svg>
